<svg width="24" height="24" viewBox="0 0 24 24" fill="none" xmlns="http://www.w3.org/2000/svg">
<path d="M17.5369 12.625C17.5404 13.4879 17.7964 14.331 18.2733 15.0501C18.7503 15.7693 19.4273 16.3331 20.2209 16.672C19.8991 17.6821 19.4329 18.6403 18.8369 19.517C18.0029 20.735 17.1369 21.949 15.7749 21.974C14.4349 21.999 14.0049 21.18 12.4749 21.18C10.9439 21.18 10.4649 21.949 9.19989 22C7.88389 22.049 6.88289 20.682 6.04189 19.468C4.32189 16.984 3.00989 12.451 4.77189 9.391C5.18571 8.65076 5.78457 8.0306 6.5099 7.59116C7.23522 7.15173 8.06218 6.90806 8.90989 6.884C10.2019 6.859 11.4199 7.753 12.2099 7.753C12.9989 7.753 14.4799 6.678 16.0379 6.836C16.7598 6.86109 17.4661 7.05333 18.1012 7.39759C18.7363 7.74185 19.2828 8.22875 19.6979 8.82C19.0452 9.21952 18.5046 9.77821 18.1268 10.4437C17.749 11.1092 17.5454 11.8598 17.5369 12.625ZM15.0179 5.193C15.7738 4.30832 16.1484 3.16025 16.0599 2C14.9206 2.11055 13.8668 2.653 13.1149 3.516C12.7393 3.93379 12.4517 4.42302 12.2694 4.95445C12.0871 5.48588 12.0138 6.0486 12.0539 6.609C12.6241 6.6176 13.1886 6.49426 13.7033 6.24863C14.218 6.003 14.6689 5.64172 15.0209 5.193H15.0179Z" fill="black"/>
</svg>
