<svg width="28" height="28" viewBox="0 0 28 28" fill="none" xmlns="http://www.w3.org/2000/svg">
<rect width="28" height="28" rx="14" fill="white"/>
<path d="M18.667 9.91667H9.33366V18.0833L14.754 12.6618C14.8082 12.6076 14.8725 12.5646 14.9433 12.5352C15.0141 12.5059 15.09 12.4907 15.1667 12.4907C15.2434 12.4907 15.3193 12.5059 15.3901 12.5352C15.4609 12.5646 15.5252 12.6076 15.5794 12.6618L18.667 15.7558V9.91667ZM8.16699 9.32925C8.16806 9.17605 8.22935 9.02943 8.33762 8.92104C8.4459 8.81266 8.59246 8.75122 8.74566 8.75H19.255C19.5747 8.75 19.8337 9.00958 19.8337 9.32925V18.6707C19.8326 18.8239 19.7713 18.9706 19.663 19.079C19.5548 19.1873 19.4082 19.2488 19.255 19.25H8.74566C8.59213 19.2498 8.44495 19.1887 8.33644 19.0801C8.22794 18.9715 8.16699 18.8243 8.16699 18.6707V9.32925ZM11.667 13.4167C11.3576 13.4167 11.0608 13.2937 10.842 13.075C10.6232 12.8562 10.5003 12.5594 10.5003 12.25C10.5003 11.9406 10.6232 11.6438 10.842 11.425C11.0608 11.2062 11.3576 11.0833 11.667 11.0833C11.9764 11.0833 12.2732 11.2062 12.492 11.425C12.7107 11.6438 12.8337 11.9406 12.8337 12.25C12.8337 12.5594 12.7107 12.8562 12.492 13.075C12.2732 13.2937 11.9764 13.4167 11.667 13.4167Z" fill="black"/>
</svg>
