<svg width="24" height="21" viewBox="0 0 24 21" fill="none" xmlns="http://www.w3.org/2000/svg">
<g clip-path="url(#clip0_4028_1427)">
<path d="M1.81444 17.9769L2.87287 19.7651C3.09281 20.1416 3.40894 20.4375 3.78009 20.6526C4.84316 19.3326 5.58316 18.3197 6.00009 17.6139C6.42322 16.8975 6.94325 15.7771 7.56019 14.2525C5.89744 14.0384 4.63744 13.9313 3.78019 13.9313C2.95737 13.9313 1.69731 14.0384 0 14.2525C0 14.6693 0.109969 15.0861 0.329906 15.4626L1.81444 17.9769Z" fill="#0066DA"/>
<path d="M20.2194 20.6526C20.5907 20.4375 20.9068 20.1417 21.1267 19.7652L21.5665 19.0257L23.6697 15.4626C23.8856 15.0942 23.9993 14.6771 23.9995 14.2525C22.2923 14.0384 21.0346 13.9313 20.2264 13.9313C19.3577 13.9313 18.0999 14.0384 16.4531 14.2525C17.0627 15.7854 17.5759 16.9059 17.9927 17.6139C18.4129 18.3281 19.1552 19.341 20.2194 20.6526Z" fill="#EA4335"/>
<path d="M12.0008 6.72284C13.2308 5.26978 14.0785 4.14932 14.5438 3.36147C14.9185 2.72707 15.3309 1.71414 15.7809 0.322703C15.4097 0.107568 14.9836 0 14.5438 0H9.45783C9.01795 0 8.59195 0.121048 8.2207 0.322703C8.7932 1.91852 9.27895 3.05423 9.67795 3.72984C10.119 4.47648 10.8932 5.47415 12.0008 6.72284Z" fill="#00832D"/>
<path d="M16.4391 14.2525H7.5593L3.7793 20.6526C4.15036 20.8678 4.57645 20.9753 5.01633 20.9753H18.9821C19.422 20.9753 19.8481 20.8543 20.2192 20.6526L16.4391 14.2525Z" fill="#2684FC"/>
<path d="M12.0001 6.72286L8.22009 0.322815C7.84884 0.53795 7.53272 0.833693 7.31278 1.21023L0.329906 13.0424C0.114024 13.4108 0.000298266 13.8279 0 14.2525H7.56019L12.0001 6.72286Z" fill="#00AC47"/>
<path d="M20.1788 7.12623L16.6872 1.2101C16.4674 0.833571 16.1512 0.537828 15.78 0.322693L12 6.72283L16.4398 14.2525H23.9863C23.9863 13.8356 23.8763 13.4189 23.6564 13.0424L20.1788 7.12623Z" fill="#FFBA00"/>
</g>
<defs>
<clipPath id="clip0_4028_1427">
<rect width="24" height="21" fill="white"/>
</clipPath>
</defs>
</svg>
