<?xml version="1.0" encoding="UTF-8"?>
<svg width="22px" height="22px" viewBox="0 0 22 22" version="1.1" xmlns="http://www.w3.org/2000/svg" xmlns:xlink="http://www.w3.org/1999/xlink">
    <title>reddit-icon</title>
    <defs>
        <path d="M0,0 L22,0 L22,22 L0,22 L0,0 Z" id="path-1"></path>
    </defs>
    <g id="reddit-icon" stroke="none" fill="none" xlink:href="#path-1" fill-rule="evenodd" stroke-width="1">
        <g id="Group">
            <path d="M11,22 L11,22 C4.9258,22 0,17.0742 0,11 L0,11 C0,4.9258 4.9258,0 11,0 L11,0 C17.0742,0 22,4.9258 22,11 L22,11 C22,17.0742 17.0742,22 11,22 Z" id="Path" fill="#000000" fill-rule="nonzero"></path>
            <path d="M13.5212,13.2924 C12.8898,13.2924 12.375,12.7776 12.375,12.1462 C12.375,11.5148 12.8898,11 13.5212,11 C14.1526,11 14.6674,11.5148 14.6674,12.1462 C14.6674,12.7776 14.1526,13.2924 13.5212,13.2924 M13.7236,15.1734 C12.9404,15.9544 11.4422,16.016 11.0022,16.016 C10.5622,16.016 9.0618,15.9544 8.2808,15.1734 C8.1642,15.0568 8.1642,14.8698 8.2808,14.7532 C8.3974,14.6366 8.5844,14.6366 8.701,14.7532 C9.1938,15.246 10.2476,15.422 11.0022,15.422 C11.7546,15.422 12.8106,15.246 13.3034,14.7532 C13.42,14.6366 13.607,14.6366 13.7236,14.7532 C13.838,14.8698 13.838,15.0568 13.7236,15.1734 M7.3326,12.1462 C7.3326,11.5148 7.8474,11 8.4788,11 C9.1102,11 9.625,11.5148 9.625,12.1462 C9.625,12.7776 9.1102,13.2924 8.4788,13.2924 C7.8474,13.2924 7.3326,12.7776 7.3326,12.1462 M18.3326,11 C18.3326,10.1134 17.6154,9.3962 16.7288,9.3962 C16.2954,9.3962 15.9038,9.5678 15.6156,9.8472 C14.52,9.0552 13.0086,8.5448 11.3256,8.4854 L12.056,5.0468 L14.443,5.555 C14.4716,6.1622 14.9688,6.6462 15.5826,6.6462 C16.2162,6.6462 16.7288,6.1336 16.7288,5.5 C16.7288,4.8664 16.2162,4.3538 15.5826,4.3538 C15.1316,4.3538 14.7466,4.6156 14.5596,4.994 L11.8932,4.4264 C11.8184,4.411 11.7414,4.4242 11.6776,4.466 C11.6138,4.5078 11.5698,4.5716 11.5544,4.6464 L10.7536,8.4194 C10.7492,8.4414 10.7536,8.4612 10.7536,8.4832 C9.0398,8.5272 7.4998,9.0398 6.3866,9.8428 C6.0984,9.5656 5.709,9.3962 5.2778,9.3962 C4.3912,9.3962 3.674,10.1156 3.674,11 C3.674,11.6512 4.0634,12.2122 4.6222,12.463 C4.598,12.6214 4.5848,12.7842 4.5848,12.9492 C4.5848,15.4176 7.458,17.4174 11.0022,17.4174 C14.5464,17.4174 17.4196,15.4176 17.4196,12.9492 C17.4196,12.7864 17.4064,12.6258 17.3822,12.4674 C17.9388,12.2166 18.3326,11.6556 18.3326,11" id="Fill-3" fill="#FFFFFF" fill-rule="nonzero"></path>
        </g>
    </g>
</svg>