<svg width="16" height="16" viewBox="0 0 16 16" fill="none" xmlns="http://www.w3.org/2000/svg">
<g clip-path="url(#clip0_4100_1462)">
<path fill-rule="evenodd" clip-rule="evenodd" d="M8.66675 12.6666V15.3333H7.3334V12.6666H8.66675ZM11.7713 10.8284L13.6569 12.714L12.7141 13.6568L10.8285 11.7712L11.7713 10.8284ZM4.22884 10.8284L5.17165 11.7712L3.28603 13.6568L2.34322 12.714L4.22884 10.8284ZM8.00009 4.35475C10.0133 4.35475 11.6453 5.98675 11.6453 7.99997C11.6453 10.0132 10.0133 11.6452 8.00009 11.6452C7.52114 11.6461 7.04672 11.5524 6.60405 11.3696C6.16138 11.1867 5.75917 10.9182 5.42049 10.5796C5.08182 10.2409 4.81335 9.83868 4.63048 9.39601C4.4476 8.95334 4.35394 8.47892 4.35484 7.99997C4.35484 5.98675 5.98687 4.35475 8.00009 4.35475ZM8.00009 5.68806C6.72325 5.68806 5.68819 6.72316 5.68819 8.0025C5.68761 8.30593 5.74694 8.60649 5.86279 8.88693C5.97864 9.16738 6.14872 9.42219 6.36328 9.63675C6.79662 10.0701 7.38469 10.313 8.00009 10.3118V5.68806ZM15.3334 7.33328V8.66663H12.6667V7.33328H15.3334ZM3.3334 7.33328V8.66663H0.666748V7.33328H3.3334ZM3.28603 2.34309L5.17165 4.22872L4.22884 5.17153L2.34322 3.28591L3.28603 2.34309ZM12.7142 2.34309L13.6569 3.28591L11.7713 5.17153L10.8285 4.22872L12.7142 2.34309ZM8.66672 0.666626V3.33328H7.33337V0.666626H8.66672Z" fill="white"/>
</g>
<defs>
<clipPath id="clip0_4100_1462">
<rect width="16" height="16" fill="white"/>
</clipPath>
</defs>
</svg>
