<svg width="16" height="16" viewBox="0 0 16 16" fill="none" xmlns="http://www.w3.org/2000/svg">
<path d="M14.0001 3.99998H8.94008L11.1334 1.80665L10.6667 1.33331L8.00008 3.99998L5.33341 1.33331L4.86008 1.80665L7.06008 3.99998H2.00008C1.64646 3.99998 1.30732 4.14046 1.05727 4.3905C0.807224 4.64055 0.666748 4.97969 0.666748 5.33331V13.3333C0.666748 14.0666 1.26675 14.6666 2.00008 14.6666H14.0001C14.7334 14.6666 15.3334 14.0666 15.3334 13.3333V5.33331C15.3334 4.97969 15.1929 4.64055 14.9429 4.3905C14.6928 4.14046 14.3537 3.99998 14.0001 3.99998ZM14.0001 13.3333H2.00008V5.33331H14.0001V13.3333ZM6.00008 6.66665V12L10.6667 9.33331L6.00008 6.66665Z" fill="white"/>
</svg>
