<svg width="16" height="16" viewBox="0 0 16 16" fill="none" xmlns="http://www.w3.org/2000/svg">
<path d="M6.80992 5.77666C8.29658 5.69666 9.84325 6.55332 10.3566 8.51332C10.9291 8.56012 11.4632 8.82008 11.8533 9.24178C12.2434 9.66349 12.461 10.2162 12.4631 10.7907C12.4652 11.3651 12.2516 11.9194 11.8646 12.344C11.4776 12.7685 10.9454 13.0324 10.3732 13.0833H3.96325C0.893248 12.6667 0.473248 8.19666 3.96325 7.59666C4.23636 7.07022 4.64318 6.6249 5.14285 6.30544C5.64253 5.98598 6.21746 5.80361 6.80992 5.77666Z" stroke="white" stroke-width="0.5" stroke-linecap="round" stroke-linejoin="round"/>
<path d="M8.51663 6.12335C8.66123 5.83213 8.8723 5.579 9.13279 5.3844C9.39328 5.18981 9.69589 5.05921 10.0162 5.00315C10.3364 4.94709 10.6654 4.96715 10.9765 5.06169C11.2876 5.15624 11.5721 5.32263 11.807 5.54742C12.042 5.77222 12.2207 6.04911 12.3289 6.35574C12.4371 6.66238 12.4716 6.99015 12.4297 7.31259C12.3878 7.63503 12.2706 7.94309 12.0877 8.2119C11.9048 8.48071 11.6612 8.70273 11.3766 8.86002M10.3766 4.09335V2.91669M8.29329 4.95669L7.45996 4.12335M12.46 9.12669L13.2933 9.95669M13.3233 7.04002H14.5M12.46 4.95669L13.2933 4.12335" stroke="white" stroke-width="0.5" stroke-linecap="round" stroke-linejoin="round"/>
</svg>
