<?xml version="1.0" encoding="utf-8" ?>
<svg xmlns="http://www.w3.org/2000/svg" xmlns:xlink="http://www.w3.org/1999/xlink" width="78" height="13">
	<defs>
		<linearGradient id="gradient_0" gradientUnits="userSpaceOnUse" x1="11.727509" y1="4.3578749" x2="2.071084" y2="12.479121">
			<stop offset="0" stop-color="#FDA624"/>
			<stop offset="1" stop-color="#FF6502"/>
		</linearGradient>
	</defs>
	<path fill="url(#gradient_0)" d="M9.2563295 0C9.9606667 0 10.531646 0.57097864 10.531646 1.2753165C10.531646 1.8197485 10.190495 2.2845008 9.7103043 2.4674647L13.225107 6.1074395L16.514723 3.6304917C16.374365 3.444505 16.29114 3.2129843 16.29114 2.9620254C16.29114 2.3485699 16.788443 1.8512658 17.401899 1.8512658C18.015354 1.8512658 18.512659 2.3485699 18.512659 2.9620254C18.512659 3.5754809 18.015354 4.0727849 17.401899 4.0727849C17.325697 4.0727849 17.251287 4.0651116 17.179401 4.0504956L16.015263 10.367088L2.48471 10.367088L1.3058058 4.0557165C1.2424815 4.0669332 1.1773038 4.0727849 1.1107595 4.0727849C0.49730396 4.0727849 0 3.5754809 0 2.9620254C0 2.3485699 0.49730396 1.8512658 1.1107595 1.8512658C1.724215 1.8512658 2.221519 2.3485699 2.221519 2.9620254C2.221519 3.2167022 2.1358082 3.4513605 1.9916589 3.6387277L5.3233285 6.1074395L8.8049536 2.468452C8.3233948 2.2861772 7.9810128 1.8207306 7.9810128 1.2753165C7.9810128 0.57097864 8.5519915 0 9.2563295 0ZM2.8386075 11.35443L15.67405 11.35443C16.128462 11.35443 16.496836 11.722804 16.496836 12.177216C16.496836 12.631627 16.128462 13 15.67405 13L2.8386075 13C2.384196 13 2.0158229 12.631627 2.0158229 12.177216C2.0158229 11.722804 2.384196 11.35443 2.8386075 11.35443Z" fill-rule="evenodd"/>
	<defs>
		<linearGradient id="gradient_1" gradientUnits="userSpaceOnUse" x1="42.566586" y1="5.0799999" x2="6.3920617" y2="9.7314682">
			<stop offset="0" stop-color="#FDA624"/>
			<stop offset="1" stop-color="#FF6502"/>
		</linearGradient>
	</defs>
	<path fill="url(#gradient_1)" transform="translate(22.072 2.2)" d="M0 9.9468527L0.02841958 9.8047552L0.18472727 9.7479162C0.59207457 9.6058178 0.83364105 9.3310957 0.90942657 8.923748L1.6483357 4.9734263C1.7525408 4.4524012 1.8520093 3.9195337 1.9467412 3.3748252C2.0414732 2.8301165 2.1456783 2.2262006 2.2593567 1.563077C2.3256691 1.1746759 2.174098 0.90942657 1.8046434 0.76732868L1.6625454 0.71048951L1.6909651 0.56839162L4.7886992 0.56839162C6.0107412 0.56839162 6.8988533 0.80285317 7.4530349 1.2717762C8.0072165 1.7406993 8.2843075 2.3588252 8.2843075 3.1261539C8.2843075 3.6755991 8.1256313 4.1895199 7.8082795 4.6679163C7.4909277 5.1463122 7.0125313 5.5299768 6.3730907 5.8189092C5.7336502 6.1078415 4.9307971 6.2523079 3.9645314 6.2523079L3.3393006 6.2523079C3.2635152 6.6312356 3.1853614 7.0504241 3.1048391 7.5098743C3.024317 7.9693241 2.9414265 8.4311419 2.8561678 8.8953285C2.7898555 9.3310957 2.9603729 9.6200275 3.3677204 9.762126L3.5382378 9.8047552L3.5098181 9.9468527L0 9.9468527ZM3.3961399 5.968112L3.9219022 5.968112C4.6418648 5.968112 5.2244663 5.7099671 5.6697063 5.1936784C6.1149464 4.6773891 6.3375664 3.9645314 6.3375664 3.055105C6.3375664 2.3446155 6.1954684 1.7999067 5.9112725 1.420979C5.6270771 1.0420513 5.2197294 0.8525874 4.6892309 0.8525874L4.348196 0.8525874C4.1966248 1.7051748 4.0403171 2.5577621 3.8792727 3.4103496C3.7182283 4.2629371 3.5571842 5.1155243 3.3961399 5.968112ZM8.5542936 10.046322L8.4121962 9.9468527L9.4921398 4.7460699C9.539506 4.4997668 9.5252962 4.3174081 9.4495106 4.1989932C9.3737249 4.0805779 9.2458372 3.9834778 9.0658464 3.9076922L8.8526993 3.8082237L8.8811188 3.6661258L11.353622 2.8845875L11.49572 3.0124755L11.112056 5.357091C11.310993 4.9023776 11.543086 4.4902935 11.808335 4.1208391C12.073586 3.7513845 12.353045 3.4553473 12.646713 3.2327273C12.940382 3.0101073 13.234052 2.8987973 13.52772 2.8987973C13.821389 2.8987973 14.058219 2.9769511 14.23821 3.1332588C14.4182 3.2895665 14.508196 3.4956083 14.508196 3.7513845C14.508196 4.016634 14.430042 4.2345176 14.273734 4.405035C14.117427 4.5755525 13.906648 4.6608114 13.641398 4.6608114C13.432988 4.6608114 13.234052 4.6063404 13.044587 4.4973984C12.855124 4.3884568 12.670396 4.2297807 12.490406 4.0213704C12.158844 4.2676735 11.874648 4.5873938 11.637818 4.9805317C11.400989 5.3736691 11.183105 5.802331 10.984168 6.2665176L10.84207 6.9201679C10.737864 7.4222469 10.638396 7.9243264 10.543664 8.4264059C10.448933 8.9284849 10.3542 9.4353008 10.259468 9.9468527L8.5542936 10.046322ZM17.080168 10.16C16.369678 10.16 15.791814 9.927907 15.346574 9.4637203C14.901334 8.9995337 14.678713 8.3411465 14.678713 7.4885592C14.678713 6.8822751 14.782918 6.3044105 14.991328 5.7549648C15.199739 5.2055197 15.491039 4.715282 15.865231 4.2842517C16.239422 3.8532214 16.672821 3.5145547 17.165426 3.2682517C17.658033 3.0219488 18.193268 2.8987973 18.771133 2.8987973C19.367945 2.8987973 19.825026 3.0337901 20.142378 3.3037763C20.45973 3.5737622 20.618406 3.9313753 20.618406 4.3766155C20.618406 4.7460699 20.44552 5.1107879 20.099749 5.4707694C19.753977 5.8307505 19.268475 6.1552076 18.643246 6.44414C18.018015 6.7330723 17.283842 6.9533238 16.440727 7.1048951C16.450201 7.7585454 16.592299 8.2369413 16.867022 8.5400839C17.141743 8.8432264 17.520672 8.9947968 18.003803 8.9947968C18.411152 8.9947968 18.785343 8.8834867 19.126377 8.6608667C19.467413 8.4382467 19.756346 8.1753664 19.993176 7.8722239L20.135273 7.9716921C19.945808 8.3411465 19.701874 8.6916552 19.403469 9.0232172C19.105062 9.3547783 18.76166 9.6271324 18.373259 9.8402796C17.984858 10.053427 17.553827 10.16 17.080168 10.16ZM18.671665 3.2824616C18.453781 3.2824616 18.21932 3.3771935 17.968279 3.5666573C17.717239 3.7561212 17.48041 4.0142655 17.25779 4.3410907C17.03517 4.6679163 16.850443 5.0421071 16.703608 5.4636645C16.556774 5.8852215 16.469147 6.33283 16.440727 6.8064895C17.482779 6.5222936 18.224056 6.1481028 18.66456 5.6839161C19.105062 5.2197294 19.325315 4.6939673 19.325315 4.1066294C19.325315 3.8224335 19.263739 3.6140232 19.140587 3.4813986C19.017435 3.348774 18.861128 3.2824616 18.671665 3.2824616ZM22.792503 9.9468527L21.058908 10.046322L20.94523 9.9468527L22.039385 4.7176504C22.124643 4.3387227 21.992018 4.0782099 21.64151 3.9361119L21.385735 3.8082237L21.414154 3.6661258L24.057175 2.8845875L24.185062 3.0124755L23.886658 4.547133C24.369791 4.0450535 24.862396 3.6448112 25.364475 3.3464055C25.866554 3.0480001 26.335478 2.8987973 26.771244 2.8987973C27.074387 2.8987973 27.325426 2.9911609 27.524364 3.1758881C27.723301 3.3606155 27.822769 3.6471796 27.822769 4.0355806C27.822769 4.1208391 27.818033 4.2060981 27.808559 4.2913566C27.799086 4.3766155 27.789614 4.4666109 27.78014 4.5613427C28.253799 4.0497904 28.734564 3.6448112 29.222433 3.3464055C29.710302 3.0480001 30.176857 2.8987973 30.622097 2.8987973C30.92524 2.8987973 31.173912 2.9911609 31.368113 3.1758881C31.562313 3.3606155 31.659412 3.6471796 31.659412 4.0355806C31.659412 4.2345176 31.640467 4.4405594 31.602573 4.6537061C31.56468 4.8668532 31.517315 5.0871048 31.460476 5.3144617L30.721567 8.3553562C30.683674 8.5069275 30.650518 8.6348162 30.622097 8.7390213C30.593678 8.8432264 30.579468 8.9332218 30.579468 9.0090075C30.579468 9.2079439 30.65999 9.3074121 30.821035 9.3074121C30.963133 9.3074121 31.121809 9.2482052 31.297064 9.1297903C31.472317 9.0113754 31.664148 8.8479624 31.872559 8.6395521L32.014656 8.7816505C31.882032 8.9900608 31.706779 9.200839 31.488895 9.4139862C31.271011 9.6271324 31.017603 9.8047552 30.728672 9.9468527C30.439739 10.088951 30.115282 10.16 29.755301 10.16C29.442686 10.16 29.201118 10.086583 29.030602 9.9397478C28.860085 9.7929134 28.774826 9.5868721 28.774826 9.3216228C28.774826 9.1226854 28.798508 8.9166431 28.845875 8.7034969C28.89324 8.4903498 28.950079 8.2700977 29.016392 8.0427408L29.598993 5.6412868C29.655832 5.3949838 29.705566 5.1676269 29.748196 4.9592166C29.790825 4.7508063 29.81214 4.5802889 29.81214 4.4476643C29.81214 4.1161027 29.660568 3.9503217 29.357426 3.9503217C28.921659 3.9503217 28.372215 4.2771468 27.709091 4.9307971C27.699617 4.9497437 27.692513 4.9710584 27.687777 4.9947414C27.683039 5.018424 27.680672 5.0444756 27.680672 5.0728951L27.282797 6.9201679C27.178593 7.4222469 27.079124 7.9243264 26.984392 8.4264059C26.88966 8.9284849 26.790192 9.4353008 26.685986 9.9468527L24.966602 10.046322L24.852922 9.9468527L25.804979 5.4423494C25.842873 5.2528858 25.876028 5.0752635 25.904448 4.9094825C25.932867 4.7437015 25.947077 4.5992355 25.947077 4.4760838C25.947077 4.1634684 25.804979 4.0071607 25.520782 4.0071607C25.037651 4.0071607 24.469259 4.3150396 23.815609 4.9307971L23.375105 6.9201679C23.270899 7.4222469 23.171431 7.9243264 23.0767 8.4264059C22.981968 8.9284849 22.887236 9.4353008 22.792503 9.9468527ZM35.211861 2.103049C34.946609 2.103049 34.716885 2.0154219 34.522686 1.8401679C34.328484 1.6649138 34.231384 1.4304522 34.231384 1.1367832C34.231384 0.80522144 34.347431 0.53286713 34.579525 0.31972027C34.811619 0.10657343 35.074497 0 35.368168 0C35.652363 0 35.884457 0.08999534 36.064449 0.269986C36.244438 0.44997668 36.334435 0.68206996 36.334435 0.96626574C36.334435 1.2883543 36.220757 1.5583403 35.993397 1.7762238C35.766041 1.9941072 35.505527 2.103049 35.211861 2.103049ZM33.89035 10.16C33.59668 10.16 33.355114 10.084214 33.165649 9.9326429C32.976185 9.7810726 32.881454 9.5584526 32.881454 9.2647829C32.881454 9.0942659 32.900402 8.8905916 32.938293 8.6537619C32.976185 8.4169321 33.018814 8.1801023 33.066181 7.9432726L33.734043 4.7460699C33.819302 4.3576689 33.681938 4.0829463 33.321957 3.9219022L33.094601 3.8082237L33.10881 3.651916L35.780251 2.8845875L35.922348 3.0124755L34.813988 8.1564198C34.776093 8.3269367 34.747673 8.4714031 34.728725 8.589818C34.709782 8.7082329 34.700306 8.8242798 34.700306 8.9379578C34.700306 9.146368 34.79504 9.2505732 34.984505 9.2505732C35.126602 9.2505732 35.2687 9.2055759 35.410797 9.1155806C35.552895 9.0255852 35.732887 8.8763819 35.950768 8.6679716L36.078659 8.7958603C35.841827 9.146368 35.541054 9.4613523 35.176334 9.7408113C34.811619 10.02027 34.382957 10.16 33.89035 10.16ZM38.139076 10.16C37.81699 10.16 37.539898 10.0629 37.307804 9.8686991C37.07571 9.6744986 36.959663 9.3831978 36.959663 8.9947968C36.959663 8.7769136 36.983349 8.5400839 37.030712 8.2843075C37.078079 8.0285311 37.13018 7.777492 37.187019 7.531189L37.812252 4.7318602C37.897511 4.3624058 37.769623 4.0924196 37.428589 3.9219022L37.1586 3.8082237L37.17281 3.651916L39.858463 2.8845875L39.986351 2.9982657L38.991665 7.3464618C38.934826 7.5832915 38.887459 7.7964382 38.849567 7.9859023C38.811672 8.1753664 38.792728 8.3506203 38.792728 8.5116644C38.792728 8.7200747 38.840092 8.869277 38.934826 8.9592724C39.029556 9.0492678 39.15271 9.0942659 39.304279 9.0942659C39.522163 9.0942659 39.763729 9.0161123 40.02898 8.8598042C40.294228 8.7034969 40.602108 8.4595613 40.952614 8.1280003C40.96209 8.0711613 40.976299 8.0095854 40.995243 7.9432726L41.478378 5.6554966C41.554165 5.2860417 41.627579 4.9142189 41.698627 4.5400281C41.76968 4.1658368 41.83836 3.7892773 41.904671 3.4103496L43.695107 2.8845875L43.851414 3.0124755L42.72884 8.1706295C42.653053 8.5021915 42.615162 8.7627039 42.615162 8.9521675C42.615162 9.1511049 42.70042 9.2505732 42.870937 9.2505732C43.003563 9.2505732 43.14566 9.1961021 43.29723 9.0871611C43.448803 8.978219 43.63353 8.8148069 43.851414 8.5969229L44.021931 8.7674408C43.785099 9.1179485 43.484325 9.4376688 43.11961 9.7266016C42.75489 10.015533 42.340439 10.16 41.876251 10.16C41.582584 10.16 41.33865 10.058164 41.144447 9.8544893C40.950249 9.650816 40.853146 9.3595152 40.853146 8.980587C40.853146 8.8384895 40.862621 8.701128 40.881565 8.5685034C40.388962 9.0611095 39.912933 9.4495106 39.453484 9.7337065C38.994034 10.017902 38.555897 10.16 38.139076 10.16ZM46.423386 9.9468527L44.689789 10.046322L44.576111 9.9468527L45.670265 4.7176504C45.755524 4.3387227 45.622898 4.0782099 45.272392 3.9361119L45.016617 3.8082237L45.045036 3.6661258L47.688057 2.8845875L47.815945 3.0124755L47.51754 4.547133C48.000671 4.0450535 48.493279 3.6448112 48.995358 3.3464055C49.497437 3.0480001 49.966358 2.8987973 50.402126 2.8987973C50.705269 2.8987973 50.956306 2.9911609 51.155243 3.1758881C51.354183 3.3606155 51.453651 3.6471796 51.453651 4.0355806C51.453651 4.1208391 51.448914 4.2060981 51.439442 4.2913566C51.429966 4.3766155 51.420494 4.4666109 51.411022 4.5613427C51.884682 4.0497904 52.365444 3.6448112 52.853313 3.3464055C53.341183 3.0480001 53.807739 2.8987973 54.252979 2.8987973C54.556122 2.8987973 54.804794 2.9911609 54.998993 3.1758881C55.193195 3.3606155 55.290295 3.6471796 55.290295 4.0355806C55.290295 4.2345176 55.271347 4.4405594 55.233456 4.6537061C55.19556 4.8668532 55.148197 5.0871048 55.091358 5.3144617L54.352448 8.3553562C54.314556 8.5069275 54.281399 8.6348162 54.252979 8.7390213C54.22456 8.8432264 54.21035 8.9332218 54.21035 9.0090075C54.21035 9.2079439 54.290871 9.3074121 54.451916 9.3074121C54.594013 9.3074121 54.752689 9.2482052 54.927944 9.1297903C55.103199 9.0113754 55.295029 8.8479624 55.503441 8.6395521L55.645538 8.7816505C55.512913 8.9900608 55.337658 9.200839 55.119778 9.4139862C54.901894 9.6271324 54.648483 9.8047552 54.359554 9.9468527C54.070621 10.088951 53.746162 10.16 53.386181 10.16C53.073566 10.16 52.832001 10.086583 52.661484 9.9397478C52.490967 9.7929134 52.405704 9.5868721 52.405704 9.3216228C52.405704 9.1226854 52.42939 8.9166431 52.476757 8.7034969C52.52412 8.4903498 52.580959 8.2700977 52.647274 8.0427408L53.229874 5.6412868C53.286713 5.3949838 53.336449 5.1676269 53.379078 4.9592166C53.421707 4.7508063 53.44302 4.5802889 53.44302 4.4476643C53.44302 4.1161027 53.291451 3.9503217 52.988308 3.9503217C52.55254 3.9503217 52.003094 4.2771468 51.339973 4.9307971C51.330498 4.9497437 51.323395 4.9710584 51.318657 4.9947414C51.313919 5.018424 51.311554 5.0444756 51.311554 5.0728951L50.913677 6.9201679C50.809475 7.4222469 50.710003 7.9243264 50.615273 8.4264059C50.520542 8.9284849 50.421074 9.4353008 50.316868 9.9468527L48.597481 10.046322L48.483803 9.9468527L49.43586 5.4423494C49.473751 5.2528858 49.506908 5.0752635 49.535328 4.9094825C49.563747 4.7437015 49.577957 4.5992355 49.577957 4.4760838C49.577957 4.1634684 49.43586 4.0071607 49.151665 4.0071607C48.668533 4.0071607 48.10014 4.3150396 47.446491 4.9307971L47.005985 6.9201679C46.901779 7.4222469 46.802311 7.9243264 46.707581 8.4264059C46.61285 8.9284849 46.518116 9.4353008 46.423386 9.9468527Z"/>
</svg>
